<?xml version="1.0" standalone="no"?>
<!DOCTYPE svg PUBLIC "-//W3C//DTD SVG 20010904//EN"
 "http://www.w3.org/TR/2001/REC-SVG-20010904/DTD/svg10.dtd">
<svg version="1.0" xmlns="http://www.w3.org/2000/svg"
 width="300.000000pt" height="300.000000pt" viewBox="0 0 300.000000 300.000000"
 preserveAspectRatio="xMidYMid meet">
<metadata>
Created by potrace 1.10, written by Peter Selinger 2001-2011
</metadata>
<g transform="translate(0.000000,300.000000) scale(0.100000,-0.100000)"
fill="#000000" stroke="none">
<path d="M1020 2085 l-475 -475 43 -43 42 -43 -38 -37 -37 -36 -160 -3 c-215
-4 -214 -22 1 -26 l161 -2 32 -35 c31 -34 51 -44 51 -26 0 5 -14 21 -31 35
l-31 26 68 0 68 0 -34 -35 c-43 -44 -18 -47 27 -3 l33 32 33 -32 c45 -44 70
-41 27 3 l-34 35 440 2 c286 2 438 6 437 13 -2 6 -158 11 -435 13 l-433 2 363
363 362 362 370 -370 370 -370 -42 -42 c-26 -27 -36 -43 -27 -43 8 0 30 16 49
35 l34 35 36 -35 c20 -19 45 -35 56 -35 11 0 39 19 62 43 l43 44 -47 42 -46
43 46 47 46 46 -473 473 c-260 259 -474 472 -477 472 -3 0 -219 -214 -480
-475z m1362 -507 l-37 -38 -425 425 -425 425 -425 -425 -425 -425 -38 37 -37
38 462 462 463 463 462 -462 463 -463 -38 -37z m-90 -91 l-37 -38 -377 378
-378 378 -380 -380 -380 -380 -40 40 -40 39 415 416 415 415 419 -415 420
-415 -37 -38z m-1617 -7 l29 -30 -59 0 -59 0 29 30 c16 17 29 30 30 30 1 0 14
-13 30 -30z m1712 -77 c-17 -18 -35 -33 -41 -33 -6 0 -25 14 -43 32 l-33 32
37 38 37 38 37 -38 37 -37 -31 -32z"/>
<path d="M1610 1703 c-8 -3 -45 -28 -81 -54 -37 -27 -69 -49 -73 -49 -4 0 -4
23 0 50 6 42 4 50 -10 50 -14 0 -16 -15 -16 -105 0 -90 2 -105 16 -105 14 0
15 7 10 39 -5 33 -3 41 18 54 22 15 25 14 77 -39 29 -30 61 -54 70 -54 12 0
-3 20 -42 57 -32 31 -59 59 -59 63 0 4 25 24 55 45 70 48 83 66 35 48z"/>
<path d="M1110 1595 c0 -87 3 -105 15 -105 11 0 15 12 15 50 l0 50 90 0 90 0
0 -50 c0 -33 4 -50 13 -50 9 0 12 28 12 105 0 77 -3 105 -12 105 -9 0 -13 -16
-13 -45 l0 -45 -90 0 -90 0 0 45 c0 33 -4 45 -15 45 -12 0 -15 -18 -15 -105z"/>
<path d="M1370 1595 c0 -87 3 -105 15 -105 12 0 15 18 15 105 0 87 -3 105 -15
105 -12 0 -15 -18 -15 -105z"/>
<path d="M1660 1595 c0 -63 4 -105 10 -105 6 0 10 20 10 45 l0 45 59 0 c52 0
62 -3 80 -26 12 -15 21 -32 21 -39 0 -20 28 -37 50 -30 11 3 20 11 20 16 0 6
-8 8 -18 5 -17 -6 -26 6 -60 77 -2 4 6 7 17 7 22 0 41 27 41 59 0 37 -37 51
-137 51 l-93 0 0 -105z m192 68 c22 -20 22 -27 2 -47 -11 -12 -36 -16 -95 -16
l-79 0 0 40 0 40 77 0 c57 0 81 -4 95 -17z"/>
</g>
</svg>
